<?xml version="1.0" standalone="no"?>
<!DOCTYPE svg PUBLIC "-//W3C//DTD SVG 20010904//EN"
 "http://www.w3.org/TR/2001/REC-SVG-20010904/DTD/svg10.dtd">
<svg version="1.0" xmlns="http://www.w3.org/2000/svg"
 width="384.000000pt" height="384.000000pt" viewBox="0 0 384.000000 384.000000"
 preserveAspectRatio="xMidYMid meet">
<metadata>
Created by potrace 1.11, written by Peter Selinger 2001-2013
</metadata>
<g transform="translate(0.000000,384.000000) scale(0.100000,-0.100000)"
fill="#000000" stroke="none">
<path d="M227 3539 c-101 -27 -113 -69 -148 -534 -5 -71 -12 -230 -15 -353 -5
-206 -4 -229 15 -288 21 -69 36 -94 106 -175 69 -81 75 -110 75 -353 0 -116
-4 -227 -10 -246 -5 -19 -14 -107 -20 -195 -19 -286 -23 -317 -80 -595 -40
-192 -38 -268 6 -357 57 -115 154 -157 342 -151 95 3 125 8 158 25 114 60 146
116 152 263 5 111 -5 185 -45 343 -14 54 -23 101 -20 104 3 2 17 -12 30 -34
32 -49 269 -281 322 -315 172 -110 265 -152 445 -204 226 -65 496 -65 720 0
150 44 283 98 353 145 23 16 68 45 100 65 73 47 280 253 332 331 21 33 48 71
58 85 l19 25 -6 -40 c-8 -49 -27 -360 -29 -470 -2 -149 51 -248 161 -297 68
-30 211 -36 289 -12 104 33 167 108 182 220 9 66 8 105 -19 619 -5 88 -13 255
-19 370 -5 116 -14 226 -20 245 -18 57 -13 96 15 129 14 17 34 62 45 100 19
66 19 100 17 768 -3 648 -4 701 -21 726 -29 45 -63 60 -145 65 -107 6 -149 -8
-214 -71 -94 -90 -159 -208 -218 -396 -41 -132 -51 -196 -59 -361 l-6 -135
-38 58 c-44 68 -236 264 -298 303 -24 15 -53 36 -64 45 -35 30 -238 128 -316
152 -346 110 -580 109 -928 -3 -148 -47 -354 -171 -481 -289 l-75 -69 -8 46
c-4 26 -11 99 -17 162 -25 307 -42 416 -75 480 -14 27 -35 55 -47 61 -24 13
-457 20 -501 8z"/>
</g>
</svg>
